HIERARCHY
ROOT Hips
{
	OFFSET -3.958830 18.904000 13.208200
	CHANNELS 6 Xposition Yposition Zposition Zrotation Yrotation Xrotation 
	JOINT LHipJoint
	{
		OFFSET 0.000000 0.000000 0.000000
		CHANNELS 3 Zrotation Yrotation Xrotation
		JOINT LeftUpLeg
		{
			OFFSET 1.800000 -1.400000 0.085000
			CHANNELS 3 Zrotation Yrotation Xrotation
			JOINT LeftLeg
			{
				OFFSET 2.215000 -6.000000 0.000000
				CHANNELS 3 Zrotation Yrotation Xrotation
				JOINT LeftFoot
				{
					OFFSET 2.500000 -6.900000 0.000000
					CHANNELS 3 Zrotation Yrotation Xrotation
					JOINT LeftToeBase
					{
						OFFSET 0.200000 -0.500000 1.950000
						CHANNELS 3 Zrotation Yrotation Xrotation
						End Site
						{
							OFFSET 0.000000 0.000000 0.000000
						}
					}
				}
			}
		}
	}
	JOINT RHipJoint
	{
		OFFSET 0.000000 0.000000 0.000000
		CHANNELS 3 Zrotation Yrotation Xrotation
		JOINT RightUpLeg
		{
			OFFSET -1.800000 -1.400000 0.085000
			CHANNELS 3 Zrotation Yrotation Xrotation
			JOINT RightLeg
			{
				OFFSET -2.215000 -6.000000 0.000000
				CHANNELS 3 Zrotation Yrotation Xrotation
				JOINT RightFoot
				{
					OFFSET -2.500000 -6.900000 0.000000
					CHANNELS 3 Zrotation Yrotation Xrotation
					JOINT RightToeBase
					{
						OFFSET -0.200000 -0.500000 1.950000
						CHANNELS 3 Zrotation Yrotation Xrotation
						End Site
						{
							OFFSET 0.000000 0.000000 0.000000
						}
					}
				}
			}
		}
	}
	JOINT LowerBack
	{
		OFFSET 0.000000 0.000000 0.000000
		CHANNELS 3 Zrotation Yrotation Xrotation
		JOINT Spine
		{
			OFFSET -0.087000 1.940000 -0.288900
			CHANNELS 3 Zrotation Yrotation Xrotation
			JOINT Spine1
			{
				OFFSET 0.000000 1.950000 0.060000
				CHANNELS 3 Zrotation Yrotation Xrotation
				JOINT Neck
				{
					OFFSET 0.000000 0.000000 0.000000
					CHANNELS 3 Zrotation Yrotation Xrotation
					JOINT Neck1
					{
						OFFSET 0.000000 1.600000 0.340000
						CHANNELS 3 Zrotation Yrotation Xrotation
						JOINT Head
						{
							OFFSET 0.000000 1.667000 -0.240000
							CHANNELS 3 Zrotation Yrotation Xrotation
							End Site
							{
								OFFSET 0.000000 0.000000 0.000000
							}
						}
					}
				}
				JOINT LeftShoulder
				{
					OFFSET 0.000000 0.000000 0.000000
					CHANNELS 3 Zrotation Yrotation Xrotation
					JOINT LeftArm
					{
						OFFSET 2.700000 1.550000 -0.730000
						CHANNELS 3 Zrotation Yrotation Xrotation
						JOINT LeftForeArm
						{
							OFFSET 5.450000 0.000000 0.000000
							CHANNELS 3 Zrotation Yrotation Xrotation
							JOINT LeftHand
							{
								OFFSET 3.450000 0.000000 0.000000
								CHANNELS 3 Zrotation Yrotation Xrotation
								JOINT LeftHandIndex1
								{
									OFFSET 0.750000 0.000000 0.000000
									CHANNELS 3 Zrotation Yrotation Xrotation
									End Site
									{
										OFFSET 0.000000 0.000000 0.000000
									}
								}
							}
						}
					}
				}
				JOINT RightShoulder
				{
					OFFSET 0.000000 0.000000 0.000000
					CHANNELS 3 Zrotation Yrotation Xrotation
					JOINT RightArm
					{
						OFFSET -2.700000 1.550000 -0.730000
						CHANNELS 3 Zrotation Yrotation Xrotation
						JOINT RightForeArm
						{
							OFFSET -5.450000 0.000000 0.000000
							CHANNELS 3 Zrotation Yrotation Xrotation
							JOINT RightHand
							{
								OFFSET -3.450000 0.000000 0.000000
								CHANNELS 3 Zrotation Yrotation Xrotation
								JOINT RightHandIndex1
								{
									OFFSET -0.750000 0.000000 0.000000
									CHANNELS 3 Zrotation Yrotation Xrotation
									End Site
									{
										OFFSET 0.000000 0.000000 0.000000
									}
								}
							}
						}
					}
				}
			}
		}
	}
}
MOTION
Frames: 13
Frame Time: 0.016667
-0.498520 11.739380 -3.128400 21.919897 52.745617 -15.313291 -15.912684 7.492415 10.698936 41.844965 8.555720 -87.076391 29.985021 37.937614 146.984495 3.963978 18.499945 -0.940957 0.718440 0.574290 0.174670 18.989370 -8.926781 -0.422618 -73.056789 10.933153 -18.126585 -58.803963 -86.119103 -159.862981 -1.718675 -5.591964 2.478646 0.083450 -0.436610 -0.392740 -2.807735 -0.712649 -11.165914 10.645492 -0.926288 36.986898 -13.027617 15.549127 7.278657 9.410634 -12.547545 -36.983469 -43.749592 24.922881 101.871412 42.934800 -29.044710 -34.232110 -57.482980 -33.750795 2.942431 -41.453957 33.963061 -22.224537 46.202228 -23.799047 -9.750387 -2.987810 3.202966 1.078450 -1.042050 0.493060 0.209420 46.227310 48.031086 22.239470 41.975081 -12.931905 -19.582706 -33.799988 8.312637 -2.614975 3.371188 -1.360205 0.070870 0.419840 -0.196330 0.036850 
-0.481990 11.725430 -3.164230 21.249403 53.581729 -18.059939 -15.914348 8.433687 11.398014 41.910614 6.894312 -87.036936 29.876325 38.238064 147.478337 4.034037 18.825104 -0.979547 0.658040 0.490250 0.130720 19.397486 -9.768268 -3.079607 -70.002044 4.588302 -20.374357 146.163665 -82.750819 0.020793 -3.962922 -13.073186 0.687140 0.049590 -0.396620 -0.381950 -2.970734 -0.628989 -10.150265 11.326111 -2.980679 38.586110 -14.383053 15.680253 8.491486 10.236492 -11.763764 -38.055039 -43.899712 23.696602 99.678554 42.317510 -30.248130 -33.360350 -57.166478 -35.627635 2.806079 -43.101378 32.873535 -19.747401 41.339044 -17.488611 -6.334786 -2.834409 3.191416 1.052190 -1.005940 0.442830 0.194060 44.077936 50.845587 20.612206 43.017634 -13.431213 -14.036163 -26.063132 -0.245873 0.977474 3.272053 -1.016240 0.049750 0.410300 -0.152790 0.037750 
-0.500740 11.687900 -3.181960 20.940988 54.555406 -16.672556 -15.850749 6.319566 9.951106 42.578535 7.612425 -86.196531 29.088927 41.036190 147.748791 4.235584 19.540147 -1.089136 0.639900 0.458020 0.132570 19.087548 -6.504296 2.487858 -73.670570 9.706894 -14.055606 157.514808 -55.088250 -11.131123 -3.599952 -12.050693 0.857256 0.022710 -0.393760 -0.366710 -3.034089 -1.212925 -12.020560 10.643129 -3.375940 39.593648 -14.900725 16.076893 8.776681 10.324515 -11.633123 -38.425393 -42.652600 21.915963 98.556924 42.059060 -30.562290 -32.256640 -55.480496 -36.381592 3.978408 -45.877512 30.488711 -18.424396 38.534637 -12.841333 -4.280329 -2.715493 3.178560 1.036850 -0.987510 0.433750 0.193520 42.514966 52.290529 19.666582 44.639562 -13.385284 -12.350343 -22.298618 -3.588735 2.113776 3.213280 -0.860949 0.056090 0.384880 -0.155820 0.033150 
-0.526670 11.666680 -3.198110 21.364369 53.959274 -16.250002 -15.835509 5.796857 9.520102 42.755497 8.311129 -85.038904 28.908734 41.905156 147.593482 4.286958 19.718045 -1.116791 0.640660 0.462590 0.149300 19.150769 -5.308445 4.015858 -74.055255 9.956678 -12.910390 156.978502 -43.761485 -10.872005 -2.878022 -9.542989 1.452659 0.014910 -0.413500 -0.358870 -3.047917 -1.339140 -12.553925 9.269089 -3.098410 41.011656 -15.279151 16.684158 9.081601 10.407811 -11.182617 -39.178420 -40.584730 20.066145 98.456738 41.584550 -30.481290 -31.329640 -54.089541 -37.361386 4.535396 -47.435372 28.972056 -17.390141 36.092580 -9.508540 -2.851851 -2.669213 3.160093 1.027920 -0.977800 0.441470 0.186970 41.316745 53.552261 19.282093 45.072496 -12.898146 -11.881302 -20.351332 -4.189038 2.324723 3.171427 -0.810162 0.069200 0.360490 -0.168030 0.022900 
-0.537450 11.665580 -3.204610 20.630978 54.577142 -17.682548 -15.830836 5.926619 9.516346 42.569447 7.333684 -84.626050 29.094896 40.723157 147.271669 4.253017 19.433889 -1.065599 0.699040 0.547510 0.186160 19.135776 -5.368400 3.936225 -73.523374 10.171107 -11.442282 156.697858 -44.317193 -10.574410 -2.904170 -9.543504 1.453229 0.042360 -0.450950 -0.345100 -2.975418 -1.571717 -12.499724 8.192355 -3.481263 42.103227 -15.128754 16.368873 10.215526 10.545913 -10.403126 -40.245521 -38.549712 18.668002 99.027270 41.201540 -30.092650 -31.219210 -53.032126 -38.556955 4.581532 -45.863103 28.406552 -15.828529 33.135446 -7.606304 -1.923331 -2.635669 3.174291 1.009330 -0.986180 0.476070 0.208690 40.134055 54.637064 19.039219 43.593871 -12.362397 -10.412943 -17.303691 -4.416477 2.354444 3.129196 -0.745224 0.115980 0.333430 -0.218820 0.032340 
-0.568580 11.650740 -3.209070 21.753168 52.687119 -17.772762 -15.825564 5.996137 9.527251 42.868120 8.582656 -83.040109 29.615677 39.718996 147.008866 4.191998 18.925000 -0.938549 0.715530 0.589040 0.186870 19.147338 -5.483002 3.750547 -73.711498 9.983494 -13.573691 157.561764 -47.365867 -10.527705 -3.076859 -10.123278 1.329196 0.056890 -0.448490 -0.348020 -2.952801 -1.610258 -12.480219 6.221400 -2.431146 43.721089 -14.909180 16.933219 12.906721 10.586218 -9.324741 -42.121318 -36.737961 16.920326 97.274655 40.380430 -30.108560 -29.970000 -48.640210 -39.913817 4.955187 -44.379574 23.843043 -13.208839 27.790803 -3.704878 -0.531492 -2.619489 3.141820 0.953310 -0.966420 0.466910 0.232940 36.357858 56.423184 19.197792 41.267384 -9.030908 -8.859059 -14.495861 -5.393767 2.360958 3.139929 -0.674024 0.141570 0.318470 -0.254480 0.052610 
-0.590470 11.646670 -3.209320 22.037692 51.881923 -18.606204 -15.829764 6.322314 9.666764 42.810493 8.464301 -82.206264 30.530496 37.467949 146.901522 4.050167 18.266886 -0.807857 0.744530 0.633790 0.209270 19.124070 -5.979598 3.049853 -73.493691 9.887159 -14.406149 157.733444 -53.265947 -10.101176 -3.381643 -11.133043 1.100084 0.080620 -0.453510 -0.348350 -2.851118 -1.761677 -12.259734 4.183613 -1.789758 44.735182 -14.233013 16.874672 15.327876 10.745350 -8.507303 -43.686608 -35.041354 15.479373 96.467562 39.284640 -29.851510 -29.629070 -45.073483 -40.203384 4.745049 -42.526117 20.229815 -12.011878 25.719739 -2.572985 -0.300703 -2.638091 3.132559 0.924500 -0.955770 0.466770 0.243740 32.897935 57.488358 19.370899 37.849449 -5.788661 -7.041000 -11.431884 -6.447907 2.274536 3.155114 -0.507414 0.157870 0.317370 -0.280690 0.058440 
-0.604940 11.654290 -3.204750 22.250434 51.657820 -19.595814 -15.851527 7.180048 10.179124 42.485085 7.343086 -82.100670 30.809585 36.199753 146.760631 3.961744 18.075305 -0.803980 0.775190 0.679220 0.221870 19.126110 -7.332167 0.902166 -72.440868 8.450259 -14.961754 156.596018 -64.702352 -8.277418 -3.884519 -12.690871 0.755738 0.119150 -0.455060 -0.342530 -2.720327 -1.805672 -11.541271 2.074641 -0.992216 44.900299 -12.875054 16.038709 17.859367 10.781107 -8.000092 -44.697965 -33.715444 14.760300 96.099590 39.357210 -28.807900 -30.629510 -42.372580 -39.610494 4.210230 -40.411902 16.632545 -11.559487 26.398298 -2.343865 -0.545697 -2.689598 3.151382 0.931780 -0.954010 0.473590 0.240410 30.169979 57.694628 19.714379 33.321393 -3.116215 -5.123305 -8.282661 -6.587267 1.995387 3.104228 -0.283663 0.157310 0.327010 -0.278280 0.053520 
-0.609000 11.670460 -3.226670 22.380670 50.256578 -20.099645 -15.849649 8.082486 10.599820 42.031719 6.626633 -82.172818 31.203897 35.016197 147.013429 3.862950 17.838263 -0.778616 0.832950 0.749280 0.249000 19.121332 -8.914057 -0.939160 -70.613845 7.703134 -18.555717 -52.016680 -87.131731 -163.710968 -1.762186 -5.628558 2.500628 0.174600 -0.451350 -0.338490 -2.521353 -1.809565 -10.982263 0.355406 -0.515813 44.504430 -12.350007 15.434515 20.606255 11.196297 -7.073433 -45.985077 -33.138986 15.025955 95.578575 39.304450 -27.725300 -31.751620 -39.466905 -39.143488 3.246829 -38.379694 12.928944 -11.741846 28.779041 -1.877970 -0.980602 -2.772272 3.185522 0.946070 -0.956810 0.485140 0.252500 26.263086 58.513242 20.191291 28.782368 -0.370259 -3.482996 -5.074858 -6.167919 1.611307 2.987740 -0.034781 0.156750 0.355380 -0.287910 0.051450 
-0.630650 11.698620 -3.269110 20.913871 50.382316 -19.812670 -15.845364 6.547402 9.336596 41.158399 5.298863 -81.849145 31.798188 32.346331 146.485111 3.655207 17.360531 -0.730039 0.915750 0.857870 0.284660 19.057444 -5.363925 3.822516 -72.945076 18.316646 -13.211978 -89.996112 -87.449454 -127.826231 -1.551295 -4.942357 2.689997 0.252930 -0.449680 -0.337030 -2.313773 -2.966379 -12.400587 -1.410173 -1.290570 44.596616 -12.017003 14.228841 22.473872 11.845532 -6.197015 -46.899742 -33.446311 16.465279 95.265730 39.402890 -26.231030 -33.741590 -37.084463 -38.111396 2.087625 -36.429129 9.649770 -12.651096 32.795557 -1.641123 -1.717671 -2.856092 3.230975 0.972050 -0.974700 0.516790 0.276410 22.254660 58.723266 21.015364 22.948199 3.807873 -1.991567 -1.527828 -6.155876 1.175035 2.882364 0.343323 0.159410 0.405890 -0.308190 0.059120 
-0.661990 11.736740 -3.342030 19.166412 50.648129 -20.600958 -15.861106 5.644294 8.435530 39.103060 2.353906 -82.244625 32.527003 27.775760 145.149409 3.458499 16.793637 -0.669197 1.014330 1.013530 0.326360 19.243656 -2.919312 6.670742 -72.912392 25.323779 -10.505174 -128.828943 -89.472674 -89.573239 -2.847843 -9.638785 1.354068 0.343570 -0.489300 -0.352720 -2.278786 -3.814134 -13.187717 -2.609706 -2.710706 45.844261 -12.060214 12.404918 22.719636 12.366827 -5.350976 -46.772467 -33.985913 17.895865 94.911074 39.416910 -24.720050 -36.138570 -35.586580 -37.014187 1.403848 -33.970323 7.143651 -13.883534 36.746203 -1.997627 -2.704423 -2.901346 3.297130 0.976870 -1.014780 0.565910 0.298810 18.819197 58.103982 22.003402 17.255399 7.937715 -1.172536 -0.282208 -5.734525 0.931131 2.929322 0.524107 0.190370 0.436450 -0.355070 0.076700 
-0.697850 11.759260 -3.407680 18.138395 50.237883 -20.976048 -15.881842 5.140299 7.920949 37.454832 -0.294101 -82.561206 33.482189 23.175501 143.908351 3.305118 16.395264 -0.620597 1.087720 1.109790 0.381870 19.364038 -1.819108 8.076913 -71.419028 28.255148 -9.491694 32.390496 -88.439522 108.795889 -3.752535 -12.941072 0.565778 0.400860 -0.513570 -0.344090 -2.366674 -4.157323 -13.547391 -4.100482 -3.414840 47.034396 -11.627510 10.925629 21.458713 12.321001 -5.256764 -45.811392 -33.990070 18.452668 93.923379 38.290270 -23.005710 -36.909720 -34.728560 -35.634651 1.082634 -31.822807 5.968978 -16.763177 42.242183 -6.696379 -5.432737 -2.926682 3.372080 0.993230 -1.025020 0.604010 0.313250 17.497094 56.673759 23.293456 11.770388 11.132915 -0.825608 -0.727364 -4.343306 0.814592 2.972072 0.495631 0.204880 0.453970 -0.388010 0.068960 
-0.694070 11.781710 -3.501400 16.545017 48.638856 -21.947411 -15.885755 4.846827 7.645481 35.792532 -2.827463 -83.603053 34.834403 17.454839 142.795668 3.170491 15.997710 -0.556169 1.146340 1.177040 0.443350 19.448307 -1.255638 8.862975 -69.902709 29.657233 -10.713976 22.341054 -85.989547 118.372402 -4.348707 -15.129769 0.112065 0.442730 -0.538550 -0.329010 -2.533111 -4.261752 -13.675579 -4.098534 -5.151350 48.202979 -12.493837 10.038648 19.107309 12.544048 -5.081882 -43.978469 -34.301936 18.884383 92.265736 36.290010 -21.787330 -36.993410 -34.764949 -34.217164 0.945734 -29.601967 5.432781 -20.401737 47.395000 -13.752560 -9.314262 -2.996890 3.424062 0.994300 -1.021060 0.626590 0.317820 16.256958 55.500952 23.847000 6.894594 13.777128 -1.102578 -1.323561 -2.381077 0.656384 2.971308 0.392588 0.218940 0.454330 -0.418220 0.053720 
